<svg width="400" height="72" viewBox="0 0 400 72" fill="none" xmlns="http://www.w3.org/2000/svg">
<path d="M0 14.2967V17.4048C0.103404 20.9269 1.45049 23.5687 4.04019 25.3301C6.6306 27.0911 10.1527 28.0239 14.6079 28.1273H61.2275V33.2553H0V45.2212H14.6855H58.5858C62.8338 45.2212 66.3559 44.2247 69.1528 42.2302C71.9504 40.2358 73.3484 37.2438 73.3484 33.2553V28.1273C73.3484 24.1909 72.1186 21.4195 69.6578 19.8132C67.198 18.2076 63.507 17.4048 58.5858 17.4048H11.6549V11.9655H21.5229H81.6629L142.89 11.9733V17.1017H81.6629V33.9625V45.2289H93.3174V32.9522V27.8245H140.249C145.17 27.8245 148.861 27.0214 151.321 25.4158C153.781 23.8098 155.011 21.0385 155.011 17.1017V11.9733C155.011 7.98442 153.613 4.99315 150.816 2.99908C148.019 1.00466 144.522 0.0332931 140.326 0.0853492L96.348 0.00779832H84.0093V0L58.6633 0.0775682L14.6855 0C10.5932 0 7.12213 1.10027 4.27321 3.30185C1.42429 5.50343 0 8.15865 0 11.2668V14.2967Z" fill="#002936"/>
<path d="M204.041 17.5603L199.923 11.9655H185.704L194.095 0H200.001H205.906L236.675 45.2212H225.02L211.811 27.8167H205.595H198.602H188.501L174.981 45.2212H163.326L182.285 17.5603H195.494H204.041Z" fill="#002936"/>
<path d="M306.76 26.5734V17.8712L306.682 0H318.337V11.344V33.9547C318.337 37.0629 316.912 39.7174 314.063 41.9186C311.215 44.1202 307.744 45.2212 303.652 45.2212H259.674C255.581 45.2212 252.11 44.1202 249.261 41.9186C246.413 39.7174 244.988 37.0629 244.988 33.9547V0H256.643V26.7289C256.643 28.3865 257.576 29.8363 259.44 31.08C261.305 32.3233 263.636 32.9444 266.434 32.9444H297.047C299.534 32.9444 301.774 32.3099 303.768 31.041C305.763 29.7715 306.76 28.2824 306.76 26.5734Z" fill="#002936"/>
<path d="M368.921 45.2212H357.266V11.9655H344.056H326.651V0H341.337L385.315 0.0775682L400 0V11.9655H368.921V45.2212Z" fill="#002936"/>
<path d="M7.84235 71.3442C7.22547 71.3442 6.67942 71.2624 6.2017 71.1006C5.72399 70.9356 5.32312 70.6778 4.99698 70.3233C4.66729 69.9699 4.43427 69.5141 4.29688 68.9567L5.38935 68.5453C5.55649 69.1462 5.85006 69.5853 6.27288 69.8597C6.69854 70.1367 7.2198 70.2741 7.84235 70.2741C8.6193 70.2741 9.21458 70.1073 9.62607 69.7691C10.0383 69.4316 10.2469 68.9405 10.2469 68.2981V67.9528C10.2469 67.5381 10.1452 67.2007 9.93947 66.9344C9.73621 66.6681 9.47805 66.4595 9.16536 66.3058C8.84983 66.1549 8.43835 65.9959 7.93053 65.8281C7.91425 65.8231 7.89724 65.8178 7.88131 65.8121C7.86502 65.8065 7.85085 65.8008 7.83456 65.7958L7.62634 65.7239C6.95917 65.521 6.42657 65.3238 6.02641 65.1287C5.62271 64.9364 5.2824 64.651 4.99981 64.2728C4.71687 63.8967 4.57734 63.3914 4.57734 62.766V62.4749C4.57734 61.8105 4.71191 61.2542 4.98033 60.8013C5.24663 60.348 5.64183 60.0024 6.16027 59.7662C6.68224 59.5304 7.31542 59.4128 8.06793 59.4128C8.65259 59.4128 9.1519 59.4949 9.57189 59.6543C9.98905 59.8154 10.335 60.063 10.6059 60.3976C10.8807 60.733 11.0893 61.166 11.2345 61.6958L10.1558 62.0988C9.98055 61.5365 9.72275 61.1253 9.38527 60.8697C9.04779 60.6115 8.60832 60.4826 8.06793 60.4826C7.3048 60.4826 6.72297 60.6504 6.3221 60.9851C5.91911 61.3197 5.71832 61.7999 5.71832 62.4285V62.7167C5.71832 63.1307 5.83413 63.4654 6.06147 63.7239C6.28988 63.9788 6.57212 64.1817 6.9096 64.3248C7.24707 64.47 7.70283 64.6322 8.27651 64.8075C8.30377 64.8131 8.32573 64.8188 8.34486 64.8245C8.36433 64.8294 8.38062 64.8376 8.39691 64.8489C8.42418 64.8546 8.44897 64.8624 8.47659 64.8737C8.50386 64.8815 8.52865 64.89 8.54848 64.8957C9.13243 65.0795 9.62395 65.2767 10.0163 65.491C10.4115 65.7049 10.7377 66.0101 10.9983 66.3996C11.2565 66.792 11.3882 67.2913 11.3882 67.9029V68.2818C11.3882 68.9461 11.2515 69.5056 10.9824 69.9614C10.7104 70.4171 10.3124 70.7631 9.7833 70.9962C9.25637 71.2267 8.60832 71.3442 7.84235 71.3442ZM21.219 71.2238H20.0607V59.5332H21.219V71.2238ZM33.5141 71.3442C32.8969 71.3442 32.3509 71.2624 31.8731 71.1006C31.3958 70.9356 30.9949 70.6778 30.6688 70.3233C30.3391 69.9699 30.1057 69.5141 29.9683 68.9567L31.0611 68.5453C31.2279 69.1462 31.5219 69.5853 31.9443 69.8597C32.37 70.1367 32.8912 70.2741 33.5141 70.2741C34.2911 70.2741 34.8864 70.1073 35.2979 69.7691C35.7097 69.4316 35.9183 68.9405 35.9183 68.2981V67.9528C35.9183 67.5381 35.817 67.2007 35.6113 66.9344C35.4076 66.6681 35.1498 66.4595 34.8371 66.3058C34.5213 66.1549 34.1101 65.9959 33.602 65.8281C33.5857 65.8231 33.569 65.8178 33.5527 65.8121C33.5365 65.8065 33.5223 65.8008 33.5064 65.7958L33.2978 65.7239C32.6306 65.521 32.098 65.3238 31.6979 65.1287C31.2942 64.9364 30.9538 64.651 30.6716 64.2728C30.3883 63.8967 30.2488 63.3914 30.2488 62.766V62.4749C30.2488 61.8105 30.3833 61.2542 30.6518 60.8013C30.9181 60.348 31.3133 60.0024 31.8317 59.7662C32.3537 59.5304 32.9872 59.4128 33.7394 59.4128C34.324 59.4128 34.8237 59.4949 35.2433 59.6543C35.6605 59.8154 36.0065 60.063 36.2777 60.3976C36.5525 60.733 36.7607 61.166 36.9059 61.6958L35.8276 62.0988C35.652 61.5365 35.3942 61.1253 35.0567 60.8697C34.7192 60.6115 34.2798 60.4826 33.7394 60.4826C32.9766 60.4826 32.3948 60.6504 31.9939 60.9851C31.5909 61.3197 31.3901 61.7999 31.3901 62.4285V62.7167C31.3901 63.1307 31.5056 63.4654 31.7333 63.7239C31.9613 63.9788 32.2439 64.1817 32.5814 64.3248C32.9189 64.47 33.3746 64.6322 33.948 64.8075C33.9756 64.8131 33.9972 64.8188 34.0163 64.8245C34.0361 64.8294 34.0521 64.8376 34.0683 64.8489C34.096 64.8546 34.1204 64.8624 34.148 64.8737C34.1756 64.8815 34.2001 64.89 34.2199 64.8957C34.8039 65.0795 35.2957 65.2767 35.6881 65.491C36.0833 65.7049 36.4095 66.0101 36.6701 66.3996C36.9279 66.792 37.0596 67.2913 37.0596 67.9029V68.2818C37.0596 68.9461 36.9229 69.5056 36.6538 69.9614C36.3818 70.4171 35.9838 70.7631 35.4547 70.9962C34.9278 71.2267 34.2798 71.3442 33.5141 71.3442ZM47.3823 60.2496H48.5396V71.2238H47.3823V60.2496ZM44.4813 59.5332H51.4434V60.6115H44.4813V59.5332ZM59.5068 59.5332H60.6651V71.2238H59.5068V59.5332ZM60.3028 70.1452H65.7694V71.2238H60.3028V70.1452ZM60.3028 64.8794H65.1271V65.9577H60.3028V64.8794ZM60.3028 59.5332H65.7694V60.6115H60.3028V59.5332ZM81.7935 59.5332H82.9685V71.2238H81.8349V61.5035L81.9309 62.0191L79.0522 69.5991H78.1521L75.2734 62.1785L75.3779 61.5035V71.2238H74.2358V59.5332H75.4101L78.6021 68.0155L81.7935 59.5332ZM94.4155 59.5332H95.8143L99.319 71.2238H98.0322L95.1149 60.7871L92.1948 71.2238H90.9108L94.4155 59.5332ZM92.6534 67.3076H97.7195V68.3863H92.6534V67.3076ZM122.519 70.1452H125.269C125.949 70.1452 126.46 69.9777 126.803 69.6402C127.146 69.3027 127.319 68.8031 127.319 68.1444V62.6123C127.319 61.948 127.146 61.4486 126.803 61.114C126.46 60.7793 125.949 60.6115 125.269 60.6115H122.519V59.5332H125.22C125.933 59.5332 126.531 59.6515 127.018 59.8873C127.5 60.1235 127.865 60.4741 128.109 60.9412C128.354 61.4076 128.474 61.9869 128.474 62.6778V68.0789C128.474 68.7652 128.354 69.3413 128.106 69.8077C127.86 70.2741 127.495 70.6286 127.009 70.8672C126.523 71.1056 125.925 71.2238 125.212 71.2238H122.519V70.1452ZM121.649 59.5332H122.808V71.2238H121.649V59.5332ZM137.142 59.5332H138.299V71.2238H137.142V59.5332ZM137.938 70.1452H143.404V71.2238H137.938V70.1452ZM137.938 64.8794H142.762V65.9577H137.938V64.8794ZM137.938 59.5332H143.404V60.6115H137.938V59.5332ZM166.942 65.6121H170.059C170.402 65.6121 170.705 65.5324 170.965 65.3759C171.226 65.2169 171.426 64.9941 171.563 64.7058C171.703 64.4208 171.774 64.0805 171.774 63.691V62.5574C171.774 62.1593 171.703 61.8162 171.563 61.5226C171.426 61.2316 171.226 61.0067 170.971 60.8477C170.712 60.6912 170.408 60.6115 170.059 60.6115H166.942V59.5332H170.004C170.6 59.5332 171.116 59.6564 171.555 59.9008C171.996 60.1426 172.335 60.4939 172.573 60.949C172.812 61.4047 172.93 61.9401 172.93 62.5574V63.6994C172.93 64.3078 172.812 64.8376 172.573 65.2852C172.335 65.7353 171.996 66.0784 171.555 66.3228C171.116 66.5664 170.6 66.6903 170.004 66.6903H166.942V65.6121ZM166.096 59.5332H167.255V71.2238H166.096V59.5332ZM184.742 71.3442C184 71.3442 183.369 71.2019 182.848 70.9193C182.324 70.6335 181.926 70.222 181.649 69.6788C181.374 69.1377 181.235 68.4847 181.235 67.7191V63.0408C181.235 62.272 181.374 61.619 181.649 61.0779C181.926 60.535 182.324 60.1235 182.848 59.8402C183.369 59.5548 184 59.4128 184.742 59.4128C185.48 59.4128 186.114 59.5548 186.638 59.8402C187.162 60.1235 187.563 60.535 187.834 61.0779C188.109 61.619 188.246 62.272 188.246 63.0408V67.7191C188.246 68.4847 188.109 69.1377 187.834 69.6788C187.563 70.222 187.162 70.6335 186.638 70.9193C186.114 71.2019 185.48 71.3442 184.742 71.3442ZM184.742 70.2362C185.238 70.2362 185.664 70.1367 186.015 69.9451C186.366 69.7528 186.632 69.4731 186.814 69.1055C186.997 68.7375 187.088 68.296 187.088 67.774V62.9831C187.088 62.4643 186.997 62.0191 186.814 61.6494C186.632 61.2787 186.366 60.9957 186.015 60.8038C185.664 60.6115 185.238 60.5159 184.742 60.5159C184.248 60.5159 183.825 60.6115 183.474 60.8038C183.123 60.9957 182.857 61.2787 182.67 61.6494C182.486 62.0191 182.393 62.4643 182.393 62.9831V67.774C182.393 68.296 182.486 68.7375 182.67 69.1055C182.857 69.4731 183.123 69.7528 183.474 69.9451C183.825 70.1367 184.248 70.2362 184.742 70.2362ZM196.914 59.5332H198.039L203.288 69.5991L202.951 69.5443V59.5332H204.101V71.2153H202.959L197.654 61.1083L198.063 61.2294V71.2153H196.914V59.5332ZM215.389 60.2496H216.546V71.2238H215.389V60.2496ZM212.488 59.5332H219.45V60.6115H212.488V59.5332ZM230.579 71.3442C229.837 71.3442 229.206 71.2019 228.685 70.9193C228.161 70.6335 227.763 70.222 227.486 69.6788C227.211 69.1377 227.072 68.4847 227.072 67.7191V63.0408C227.072 62.272 227.211 61.619 227.486 61.0779C227.763 60.535 228.161 60.1235 228.685 59.8402C229.206 59.5548 229.837 59.4128 230.579 59.4128C231.317 59.4128 231.951 59.5548 232.475 59.8402C232.999 60.1235 233.4 60.535 233.671 61.0779C233.946 61.619 234.083 62.272 234.083 63.0408V67.7191C234.083 68.4847 233.946 69.1377 233.671 69.6788C233.4 70.222 232.999 70.6335 232.475 70.9193C231.951 71.2019 231.317 71.3442 230.579 71.3442ZM230.579 70.2362C231.075 70.2362 231.501 70.1367 231.852 69.9451C232.203 69.7528 232.469 69.4731 232.651 69.1055C232.834 68.7375 232.925 68.296 232.925 67.774V62.9831C232.925 62.4643 232.834 62.0191 232.651 61.6494C232.469 61.2787 232.203 60.9957 231.852 60.8038C231.501 60.6115 231.075 60.5159 230.579 60.5159C230.085 60.5159 229.662 60.6115 229.311 60.8038C228.96 60.9957 228.694 61.2787 228.507 61.6494C228.323 62.0191 228.23 62.4643 228.23 62.9831V67.774C228.23 68.296 228.323 68.7375 228.507 69.1055C228.694 69.4731 228.96 69.7528 229.311 69.9451C229.662 70.1367 230.085 70.2362 230.579 70.2362ZM259.798 59.5332H261.197L264.702 71.2238H263.415L260.497 60.7871L257.577 71.2238H256.293L259.798 59.5332ZM258.036 67.3076H263.102V68.3863H258.036V67.3076ZM275.419 71.3442C274.662 71.3442 274.036 71.2153 273.537 70.9547C273.037 70.6941 272.664 70.3074 272.414 69.7886C272.167 69.2723 272.041 68.6221 272.041 67.8402V59.5332H273.199V67.8951C273.199 68.6657 273.383 69.245 273.753 69.6267C274.123 70.0106 274.678 70.2029 275.419 70.2029C276.163 70.2029 276.722 70.0106 277.096 69.6267C277.466 69.245 277.653 68.6657 277.653 67.8951V59.5332H278.811V67.8402C278.811 68.6221 278.688 69.2723 278.437 69.7886C278.188 70.3074 277.812 70.6941 277.307 70.9547C276.804 71.2153 276.173 71.3442 275.419 71.3442ZM289.333 60.2496H290.491V71.2238H289.333V60.2496ZM286.432 59.5332H293.395V60.6115H286.432V59.5332ZM304.523 71.3442C303.782 71.3442 303.151 71.2019 302.63 70.9193C302.105 70.6335 301.707 70.222 301.431 69.6788C301.156 69.1377 301.017 68.4847 301.017 67.7191V63.0408C301.017 62.272 301.156 61.619 301.431 61.0779C301.707 60.535 302.105 60.1235 302.63 59.8402C303.151 59.5548 303.782 59.4128 304.523 59.4128C305.261 59.4128 305.896 59.5548 306.42 59.8402C306.944 60.1235 307.345 60.535 307.616 61.0779C307.891 61.619 308.028 62.272 308.028 63.0408V67.7191C308.028 68.4847 307.891 69.1377 307.616 69.6788C307.345 70.222 306.944 70.6335 306.42 70.9193C305.896 71.2019 305.261 71.3442 304.523 71.3442ZM304.523 70.2362C305.02 70.2362 305.446 70.1367 305.797 69.9451C306.148 69.7528 306.414 69.4731 306.595 69.1055C306.779 68.7375 306.87 68.296 306.87 67.774V62.9831C306.87 62.4643 306.779 62.0191 306.595 61.6494C306.414 61.2787 306.148 60.9957 305.797 60.8038C305.446 60.6115 305.02 60.5159 304.523 60.5159C304.029 60.5159 303.607 60.6115 303.255 60.8038C302.904 60.9957 302.638 61.2787 302.451 61.6494C302.268 62.0191 302.175 62.4643 302.175 62.9831V67.774C302.175 68.296 302.268 68.7375 302.451 69.1055C302.638 69.4731 302.904 69.7528 303.255 69.9451C303.607 70.1367 304.029 70.2362 304.523 70.2362ZM324.253 59.5332H325.428V71.2238H324.294V61.5035L324.39 62.0191L321.511 69.5991H320.611L317.733 62.1785L317.837 61.5035V71.2238H316.695V59.5332H317.869L321.061 68.0155L324.253 59.5332ZM336.875 59.5332H338.274L341.778 71.2238H340.491L337.574 60.7871L334.654 71.2238H333.37L336.875 59.5332ZM335.113 67.3076H340.179V68.3863H335.113V67.3076ZM336.817 58.1036L338.996 56.0918L339.857 56.9534L337.566 58.8118L336.817 58.1036ZM351.256 60.2496H352.413V71.2238H351.256V60.2496ZM348.355 59.5332H355.317V60.6115H348.355V59.5332ZM364.747 71.2238H363.589V59.5332H364.747V71.2238ZM377.171 71.3442C376.474 71.3442 375.87 71.1962 375.36 70.9026C374.853 70.6066 374.46 70.1838 374.188 69.6324C373.914 69.0807 373.777 68.4248 373.777 67.6699V63.0957C373.777 62.3403 373.914 61.6845 374.188 61.1331C374.46 60.5814 374.853 60.1557 375.36 59.86C375.87 59.5604 376.474 59.4128 377.171 59.4128C377.813 59.4128 378.379 59.5473 378.87 59.8154C379.361 60.0817 379.748 60.4716 380.036 60.9766C380.322 61.4844 380.492 62.0825 380.538 62.7745H379.38C379.334 62.3081 379.21 61.9044 379.01 61.5669C378.812 61.2294 378.555 60.9709 378.239 60.7871C377.923 60.6058 377.566 60.5159 377.171 60.5159C376.716 60.5159 376.318 60.6172 375.98 60.8229C375.643 61.0315 375.385 61.3282 375.203 61.7178C375.025 62.1045 374.935 62.5659 374.935 63.0957V67.6699C374.935 68.1996 375.025 68.6582 375.203 69.0449C375.385 69.4316 375.643 69.728 375.98 69.9338C376.318 70.1395 376.716 70.244 377.171 70.244C377.566 70.244 377.923 70.1537 378.239 69.9777C378.555 69.7992 378.812 69.5414 379.01 69.2011C379.21 68.8611 379.334 68.4546 379.38 67.9825H380.538C380.492 68.6742 380.322 69.2751 380.033 69.7804C379.743 70.2883 379.353 70.6749 378.867 70.9412C378.379 71.2104 377.813 71.3442 377.171 71.3442ZM392.197 71.3442C391.455 71.3442 390.824 71.2019 390.303 70.9193C389.779 70.6335 389.381 70.222 389.104 69.6788C388.829 69.1377 388.69 68.4847 388.69 67.7191V63.0408C388.69 62.272 388.829 61.619 389.104 61.0779C389.381 60.535 389.779 60.1235 390.303 59.8402C390.824 59.5548 391.455 59.4128 392.197 59.4128C392.935 59.4128 393.569 59.5548 394.093 59.8402C394.617 60.1235 395.018 60.535 395.289 61.0779C395.564 61.619 395.701 62.272 395.701 63.0408V67.7191C395.701 68.4847 395.564 69.1377 395.289 69.6788C395.018 70.222 394.617 70.6335 394.093 70.9193C393.569 71.2019 392.935 71.3442 392.197 71.3442ZM392.197 70.2362C392.693 70.2362 393.119 70.1367 393.47 69.9451C393.821 69.7528 394.088 69.4731 394.268 69.1055C394.452 68.7375 394.543 68.296 394.543 67.774V62.9831C394.543 62.4643 394.452 62.0191 394.268 61.6494C394.088 61.2787 393.821 60.9957 393.47 60.8038C393.119 60.6115 392.693 60.5159 392.197 60.5159C391.703 60.5159 391.28 60.6115 390.928 60.8038C390.578 60.9957 390.311 61.2787 390.125 61.6494C389.941 62.0191 389.848 62.4643 389.848 62.9831V67.774C389.848 68.296 389.941 68.7375 390.125 69.1055C390.311 69.4731 390.578 69.7528 390.928 69.9451C391.28 70.1367 391.703 70.2362 392.197 70.2362Z" fill="#002936"/>
</svg>
